<?xml version="1.0" encoding="UTF-8"?>
<svg version="1.1" xmlns="http://www.w3.org/2000/svg" width="196" height="200">
<path d="M0 0 C64.68 0 129.36 0 196 0 C196 66 196 132 196 200 C131.32 200 66.64 200 0 200 C0 134 0 68 0 0 Z " fill="#FEFEFE" transform="translate(0,0)"/>
<path d="M0 0 C0.66 0.99 1.32 1.98 2 3 C3.96361864 3.57748803 3.96361864 3.57748803 6.125 3.6875 C7.40375 3.790625 8.6825 3.89375 10 4 C10.66 3.01 11.32 2.02 12 1 C12.33 2.32 12.66 3.64 13 5 C13.33 4.67 13.66 4.34 14 4 C15.85287502 3.92773498 17.70833878 3.9161878 19.5625 3.9375 C20.57441406 3.94652344 21.58632813 3.95554687 22.62890625 3.96484375 C23.41136719 3.97644531 24.19382813 3.98804687 25 4 C24.34 4.99 23.68 5.98 23 7 C28.76081841 8.2982126 34.08739655 9.25706972 40 9 C40 8.34 40 7.68 40 7 C41.27875 6.7525 42.5575 6.505 43.875 6.25 C47.26747318 5.48009414 47.26747318 5.48009414 49.5 2.875 C49.665 2.25625 49.83 1.6375 50 1 C52.31 1 54.62 1 57 1 C57.495 2.485 57.495 2.485 58 4 C57.34 4.33 56.68 4.66 56 5 C56.61359375 5.07476562 57.2271875 5.14953125 57.859375 5.2265625 C60 6 60 6 61.265625 7.9609375 C61.75289062 9.15589844 61.75289062 9.15589844 62.25 10.375 C62.75273437 11.56222656 62.75273437 11.56222656 63.265625 12.7734375 C64 15 64 15 64 18 C64.9075 17.855625 65.815 17.71125 66.75 17.5625 C71.22539773 16.91269788 75.72159208 16.60537977 80.23046875 16.28125 C83.69028775 15.95237654 83.69028775 15.95237654 87 15 C88.3045656 12.00384054 88.3045656 12.00384054 89 9 C89.60585937 8.96261719 90.21171875 8.92523438 90.8359375 8.88671875 C96.53714192 8.43939348 101.4941559 7.38495443 106.87109375 5.42578125 C107.57363281 5.28527344 108.27617187 5.14476563 109 5 C109.99 5.66 110.98 6.32 112 7 C112 7.66 112 8.32 112 9 C112.556875 8.71125 113.11375 8.4225 113.6875 8.125 C116 7 116 7 118.5 6.125 C121.12023316 5.12359163 121.12023316 5.12359163 123.0625 2.9375 C125.11483006 0.88516994 126.1476776 0.28523224 129 0 C129.99 0.495 129.99 0.495 131 1 C129.58707905 5.8274799 127.57025846 9.7162359 125 14 C126.43655854 14.08131463 127.8744483 14.13933559 129.3125 14.1875 C130.11300781 14.22230469 130.91351563 14.25710937 131.73828125 14.29296875 C134.52059766 13.93256507 135.13213895 12.99343154 137 11 C137.99 11 138.98 11 140 11 C140 10.34 140 9.68 140 9 C141.65 8.67 143.3 8.34 145 8 C144 11 144 11 141.5 13.375 C138.90750895 16.0971156 138.31377499 17.33929183 138 21 C136.02 21 134.04 21 132 21 C132.33 22.65 132.66 24.3 133 26 C131.02 26.495 131.02 26.495 129 27 C129.33 25.68 129.66 24.36 130 23 C129.34 23.33 128.68 23.66 128 24 C127.42577504 26.69885731 127 29.23792697 127 32 C127.33 32.33 127.66 32.66 128 33 C128.804375 32.01 129.60875 31.02 130.4375 30 C131.283125 29.01 132.12875 28.02 133 27 C133.33 27 133.66 27 134 27 C133.49202991 31.3177458 132.80317221 35.03302114 131 39 C130.01 38.34 129.02 37.68 128 37 C127.38125 37.495 126.7625 37.99 126.125 38.5 C124 40 124 40 122 40 C121.67 42.31 121.34 44.62 121 47 C120.67 47 120.34 47 120 47 C120 45.02 120 43.04 120 41 C119.67 41.99 119.34 42.98 119 44 C117 47 117 47 114 48 C113.67 49.65 113.34 51.3 113 53 C110.0280615 51.87548273 107.66559313 50.77706209 105 49 C103.34450469 48.61500109 101.6777567 48.27206865 100 48 C99.938125 48.66 99.87625 49.32 99.8125 50 C98.67539213 54.19855213 96.7887297 57.65509106 94 61 C91.5 61.9375 91.5 61.9375 89 62 C85.15711303 62.5623737 82.82589075 63.26830561 80 66 C78.24927285 69.08333587 78.24927285 69.08333587 77 72 C74.69 72 72.38 72 70 72 C70 71.34 70 70.68 70 70 C69.4225 69.79375 68.845 69.5875 68.25 69.375 C65.19540291 67.50830178 63.90583572 64.9858093 62 62 C61.34 61.67 60.68 61.34 60 61 C60 60.01 60 59.02 60 58 C59.34 58 58.68 58 58 58 C58 58.66 58 59.32 58 60 C50.57361465 62.47546178 43.94496901 61.21526343 37 58 C32.03913401 57.05507314 27.04217558 56.87071345 22 57 C21.67 56.01 21.34 55.02 21 54 C19.68 54 18.36 54 17 54 C17 53.01 17 52.02 17 51 C16.2575 50.9175 15.515 50.835 14.75 50.75 C11.43668651 49.84636905 10.11884168 48.66817101 8 46 C8 45.01 8 44.02 8 43 C7.09507813 43.34224609 7.09507813 43.34224609 6.171875 43.69140625 C4.97304688 44.12259766 4.97304688 44.12259766 3.75 44.5625 C2.96109375 44.85253906 2.1721875 45.14257812 1.359375 45.44140625 C-1.19103452 46.04522837 -2.55322229 45.8473932 -5 45 C-5 44.01 -5 43.02 -5 42 C-5.66 42 -6.32 42 -7 42 C-6.67 39.36 -6.34 36.72 -6 34 C-6.66 34 -7.32 34 -8 34 C-8 33.34 -8 32.68 -8 32 C-8.99 32.495 -8.99 32.495 -10 33 C-11.99960012 33.039992 -14.00047242 33.04346799 -16 33 C-16 32.34 -16 31.68 -16 31 C-13.03 30.67 -10.06 30.34 -7 30 C-7.33 27.36 -7.66 24.72 -8 22 C-7.01 22.33 -6.02 22.66 -5 23 C-4.67 20.69 -4.34 18.38 -4 16 C-4.66 16 -5.32 16 -6 16 C-6.08114106 14.22992286 -6.13925505 12.45877902 -6.1875 10.6875 C-6.23970703 9.20830078 -6.23970703 9.20830078 -6.29296875 7.69921875 C-6 5 -6 5 -4.67578125 3.14453125 C-3 2 -3 2 0 2 C0 1.34 0 0.68 0 0 Z " fill="#D00203" transform="translate(39,75)"/>
<path d="M0 0 C-1.41292095 4.8274799 -3.42974154 8.7162359 -6 13 C-4.56344146 13.08131463 -3.1255517 13.13933559 -1.6875 13.1875 C-0.88699219 13.22230469 -0.08648437 13.25710937 0.73828125 13.29296875 C3.52059766 12.93256507 4.13213895 11.99343154 6 10 C6.99 10 7.98 10 9 10 C9 9.34 9 8.68 9 8 C10.65 7.67 12.3 7.34 14 7 C13 10 13 10 10.5 12.375 C7.90750895 15.0971156 7.31377499 16.33929183 7 20 C5.02 20 3.04 20 1 20 C1.495 22.475 1.495 22.475 2 25 C0.68 25.33 -0.64 25.66 -2 26 C-1.67 24.68 -1.34 23.36 -1 22 C-1.66 22.33 -2.32 22.66 -3 23 C-3.57422496 25.69885731 -4 28.23792697 -4 31 C-3.67 31.33 -3.34 31.66 -3 32 C-2.195625 31.01 -1.39125 30.02 -0.5625 29 C0.7059375 27.515 0.7059375 27.515 2 26 C2.33 26 2.66 26 3 26 C2.49202991 30.3177458 1.80317221 34.03302114 0 38 C-1.485 37.01 -1.485 37.01 -3 36 C-3.61875 36.495 -4.2375 36.99 -4.875 37.5 C-7 39 -7 39 -9 39 C-9.33 41.31 -9.66 43.62 -10 46 C-10.33 46 -10.66 46 -11 46 C-11 44.02 -11 42.04 -11 40 C-11.33 40.99 -11.66 41.98 -12 43 C-14 46 -14 46 -17 47 C-17.33 48.65 -17.66 50.3 -18 52 C-20.9719385 50.87548273 -23.33440687 49.77706209 -26 48 C-27.65549531 47.61500109 -29.3222433 47.27206865 -31 47 C-31.061875 47.66 -31.12375 48.32 -31.1875 49 C-32.32460787 53.19855213 -34.2112703 56.65509106 -37 60 C-39.5 60.9375 -39.5 60.9375 -42 61 C-45.84288697 61.5623737 -48.17410925 62.26830561 -51 65 C-52.75072715 68.08333587 -52.75072715 68.08333587 -54 71 C-56.31 71 -58.62 71 -61 71 C-61 70.34 -61 69.68 -61 69 C-61.5775 68.79375 -62.155 68.5875 -62.75 68.375 C-65.80459709 66.50830178 -67.09416428 63.9858093 -69 61 C-69.99 60.505 -69.99 60.505 -71 60 C-71 59.01 -71 58.02 -71 57 C-71.66 57 -72.32 57 -73 57 C-73 57.66 -73 58.32 -73 59 C-80.38853371 61.46284457 -87.18505306 60.34066027 -94 57 C-95.98821313 56.60235737 -97.98732362 56.24544834 -100 56 C-97 54 -97 54 -94.25 54.25 C-90.78534497 55.04953578 -87.40536485 55.97839055 -84 57 C-83.01 56.01 -82.02 55.02 -81 54 C-80.01 54.495 -80.01 54.495 -79 55 C-79 54.34 -79 53.68 -79 53 C-79.886875 52.938125 -80.77375 52.87625 -81.6875 52.8125 C-85.15033178 51.96312617 -86.10514134 51.08960827 -88.40234375 48.51171875 C-90.49302702 46.53349277 -92.7915592 45.18171228 -95.25 43.6875 C-100.64257109 40.35098383 -105.66351086 36.65771056 -110 32 C-110 31.34 -110 30.68 -110 30 C-112.31 29.34 -114.62 28.68 -117 28 C-117.66 28.66 -118.32 29.32 -119 30 C-119 28.68 -119 27.36 -119 26 C-112.375 26.75 -112.375 26.75 -109 29 C-105.1806492 28.71354869 -103.53640485 27.77796722 -101 25 C-100.34 25 -99.68 25 -99 25 C-98.814375 23.700625 -98.62875 22.40125 -98.4375 21.0625 C-98.33308594 20.33160156 -98.22867188 19.60070312 -98.12109375 18.84765625 C-98.08113281 18.23792969 -98.04117188 17.62820312 -98 17 C-99.13558911 15.65333163 -99.13558911 15.65333163 -102.125 15.6875 C-106.88441372 16.07132369 -109.04902901 17.41977404 -113 20 C-111.47255894 15.72316502 -108.99924698 13.99962349 -105 12 C-101.60783229 11.5199265 -98.37326965 11.35553712 -95 12 C-93.2109375 13.359375 -93.2109375 13.359375 -92 15 C-91.75648975 18.49031356 -92.50354388 20.38144562 -94.68359375 23.09765625 C-98.23592891 26.79772558 -101.08905758 29.31722952 -106 31 C-103.56134348 34.30960527 -101.74020498 36.31847927 -98 38 C-97.87882812 37.30132812 -97.75765625 36.60265625 -97.6328125 35.8828125 C-97.46523437 34.97273438 -97.29765625 34.06265625 -97.125 33.125 C-96.96257812 32.22007813 -96.80015625 31.31515625 -96.6328125 30.3828125 C-96 28 -96 28 -94 26 C-92.68 26 -91.36 26 -90 26 C-90 26.66 -90 27.32 -90 28 C-88.68 28.33 -87.36 28.66 -86 29 C-86 27.68 -86 26.36 -86 25 C-80.72 25 -75.44 25 -70 25 C-69.505 26.485 -69.505 26.485 -69 28 C-69.474375 28.4125 -69.94875 28.825 -70.4375 29.25 C-72.16266518 31.182185 -72.56584875 32.48192275 -73 35 C-72.34 35 -71.68 35 -71 35 C-70.67 33.02 -70.34 31.04 -70 29 C-69.34 29 -68.68 29 -68 29 C-68.33990833 34.37992836 -68.68557793 38.53273547 -72 43 C-74.86724686 42.42655063 -75.8614515 42.1385485 -78 40 C-78 39.01 -78 38.02 -78 37 C-78.99 37.33 -79.98 37.66 -81 38 C-81.928125 37.62875 -82.85625 37.2575 -83.8125 36.875 C-87.07553595 35.63135941 -87.07553595 35.63135941 -90.375 37.375 C-91.24125 37.91125 -92.1075 38.4475 -93 39 C-93 39.99 -93 40.98 -93 42 C-86.71034518 45.24048756 -81.33329954 47.43557467 -74.23828125 47.8203125 C-71.29885165 48.05628765 -68.73160206 48.92173603 -66 50 C-66.99 51.32 -67.98 52.64 -69 54 C-68.01 54.33 -67.02 54.66 -66 55 C-66 55.66 -66 56.32 -66 57 C-64.35 56.34 -62.7 55.68 -61 55 C-61 54.01 -61 53.02 -61 52 C-60.01 52 -59.02 52 -58 52 C-58 50.35 -58 48.7 -58 47 C-56.68 47 -55.36 47 -54 47 C-54 45.02 -54 43.04 -54 41 C-52.68 40.67 -51.36 40.34 -50 40 C-50.66 41.65 -51.32 43.3 -52 45 C-48.69753621 43.26322569 -48.69753621 43.26322569 -48.05078125 39.7421875 C-47.80714844 38.46601562 -47.56351562 37.18984375 -47.3125 35.875 C-47.06113281 34.59367187 -46.80976562 33.31234375 -46.55078125 31.9921875 C-46.36902344 31.00476563 -46.18726562 30.01734375 -46 29 C-46.66 29 -47.32 29 -48 29 C-48.33 27.35 -48.66 25.7 -49 24 C-49.68707031 24.16757813 -50.37414062 24.33515625 -51.08203125 24.5078125 C-51.98308594 24.71148437 -52.88414063 24.91515625 -53.8125 25.125 C-54.70582031 25.33382812 -55.59914062 25.54265625 -56.51953125 25.7578125 C-59 26 -59 26 -62 24 C-61.67 22.35 -61.34 20.7 -61 19 C-57.37 19 -53.74 19 -50 19 C-50 18.34 -50 17.68 -50 17 C-47.36 17 -44.72 17 -42 17 C-41.34 14.69 -40.68 12.38 -40 10 C-36.04 9.67 -32.08 9.34 -28 9 C-28 8.34 -28 7.68 -28 7 C-26.3125 5.25 -26.3125 5.25 -24 4 C-21.25 4.8125 -21.25 4.8125 -19 6 C-19 6.66 -19 7.32 -19 8 C-18.443125 7.71125 -17.88625 7.4225 -17.3125 7.125 C-15 6 -15 6 -12.5 5.125 C-9.66502521 3.84926135 -8.14457205 2.21605778 -6 0 C-3 -1 -3 -1 0 0 Z " fill="#D00203" transform="translate(170,76)"/>
<path d="M0 0 C1.7890625 1.359375 1.7890625 1.359375 3 3 C3.24351025 6.49031356 2.49645612 8.38144562 0.31640625 11.09765625 C-3.23592891 14.79772558 -6.08905758 17.31722952 -11 19 C-8.56134348 22.30960527 -6.74020498 24.31847927 -3 26 C-2.87882812 25.30132812 -2.75765625 24.60265625 -2.6328125 23.8828125 C-2.46523437 22.97273438 -2.29765625 22.06265625 -2.125 21.125 C-1.96257812 20.22007813 -1.80015625 19.31515625 -1.6328125 18.3828125 C-1 16 -1 16 1 14 C2.32 14 3.64 14 5 14 C5 14.66 5 15.32 5 16 C6.32 16.33 7.64 16.66 9 17 C9 15.68 9 14.36 9 13 C14.28 13 19.56 13 25 13 C25.495 14.485 25.495 14.485 26 16 C25.525625 16.4125 25.05125 16.825 24.5625 17.25 C22.83733482 19.182185 22.43415125 20.48192275 22 23 C22.66 23 23.32 23 24 23 C24.33 21.02 24.66 19.04 25 17 C25.66 17 26.32 17 27 17 C26.66009167 22.37992836 26.31442207 26.53273547 23 31 C20.13275314 30.42655063 19.1385485 30.1385485 17 28 C17 27.01 17 26.02 17 25 C16.01 25.33 15.02 25.66 14 26 C13.071875 25.62875 12.14375 25.2575 11.1875 24.875 C7.92446405 23.63135941 7.92446405 23.63135941 4.625 25.375 C3.75875 25.91125 2.8925 26.4475 2 27 C2 27.99 2 28.98 2 30 C8.28965482 33.24048756 13.66670046 35.43557467 20.76171875 35.8203125 C23.70114835 36.05628765 26.26839794 36.92173603 29 38 C28.01 39.32 27.02 40.64 26 42 C26.99 42.33 27.98 42.66 29 43 C29 43.66 29 44.32 29 45 C30.65 44.34 32.3 43.68 34 43 C34 42.01 34 41.02 34 40 C34.99 40 35.98 40 37 40 C37 38.35 37 36.7 37 35 C38.32 35 39.64 35 41 35 C41 33.02 41 31.04 41 29 C42.32 28.67 43.64 28.34 45 28 C44.34 29.65 43.68 31.3 43 33 C46.30826719 31.27845734 46.30826719 31.27845734 46.80859375 27.8125 C47.22779581 25.27125027 47.64446372 22.72958121 48.05859375 20.1875 C49 17 49 17 51.09765625 15.5625 C51.72542969 15.376875 52.35320312 15.19125 53 15 C53.495 15.495 53.495 15.495 54 16 C53.62206515 19.90532683 53.23947487 23.2815754 52 27 C51.77820215 28.89212737 51.59385985 30.78884472 51.4375 32.6875 C51.31181641 34.17830078 51.31181641 34.17830078 51.18359375 35.69921875 C51.12300781 36.45847656 51.06242187 37.21773437 51 38 C52.98567708 37.96744792 54.97135417 37.93489583 56.95703125 37.90234375 C59 38 59 38 62 39 C62.33 37.35 62.66 35.7 63 34 C64.65 34 66.3 34 68 34 C66.68 34.33 65.36 34.66 64 35 C63.938125 35.66 63.87625 36.32 63.8125 37 C62.67539213 41.19855213 60.7887297 44.65509106 58 48 C55.5 48.9375 55.5 48.9375 53 49 C49.15711303 49.5623737 46.82589075 50.26830561 44 53 C42.24927285 56.08333587 42.24927285 56.08333587 41 59 C38.69 59 36.38 59 34 59 C34 58.34 34 57.68 34 57 C33.4225 56.79375 32.845 56.5875 32.25 56.375 C29.19540291 54.50830178 27.90583572 51.9858093 26 49 C25.01 48.505 25.01 48.505 24 48 C24 47.01 24 46.02 24 45 C23.34 45 22.68 45 22 45 C22 45.66 22 46.32 22 47 C14.61146629 49.46284457 7.81494694 48.34066027 1 45 C-0.98821313 44.60235737 -2.98732362 44.24544834 -5 44 C-2 42 -2 42 0.75 42.25 C4.21465503 43.04953578 7.59463515 43.97839055 11 45 C11.99 44.01 12.98 43.02 14 42 C14.99 42.495 14.99 42.495 16 43 C16 42.34 16 41.68 16 41 C15.113125 40.938125 14.22625 40.87625 13.3125 40.8125 C9.84966822 39.96312617 8.89485866 39.08960827 6.59765625 36.51171875 C4.50697298 34.53349277 2.2084408 33.18171228 -0.25 31.6875 C-5.64257109 28.35098383 -10.66351086 24.65771056 -15 20 C-15 19.34 -15 18.68 -15 18 C-17.31 17.34 -19.62 16.68 -22 16 C-22.66 16.66 -23.32 17.32 -24 18 C-24 16.68 -24 15.36 -24 14 C-17.375 14.75 -17.375 14.75 -14 17 C-10.1806492 16.71354869 -8.53640485 15.77796722 -6 13 C-5.34 13 -4.68 13 -4 13 C-3.814375 11.700625 -3.62875 10.40125 -3.4375 9.0625 C-3.33308594 8.33160156 -3.22867188 7.60070312 -3.12109375 6.84765625 C-3.08113281 6.23792969 -3.04117188 5.62820312 -3 5 C-4.13558911 3.65333163 -4.13558911 3.65333163 -7.125 3.6875 C-11.88441372 4.07132369 -14.04902901 5.41977404 -18 8 C-15.19477571 0.14537199 -7.4419524 -1.42178437 0 0 Z " fill="#D00304" transform="translate(75,88)"/>
<path d="M0 0 C-0.66 0 -1.32 0 -2 0 C-2 0.66 -2 1.32 -2 2 C-3.43657245 2.33730842 -4.87430093 2.66969591 -6.3125 3 C-7.51326172 3.2784375 -7.51326172 3.2784375 -8.73828125 3.5625 C-11 4 -11 4 -14 4 C-14.66 5.98 -15.32 7.96 -16 10 C-18.64 10 -21.28 10 -24 10 C-24 10.66 -24 11.32 -24 12 C-27.63 12 -31.26 12 -35 12 C-35.33 13.65 -35.66 15.3 -36 17 C-31.38926889 18.29676812 -27.66159911 17.71109139 -23 17 C-22.71125 17.639375 -22.4225 18.27875 -22.125 18.9375 C-21.17176549 21.15206079 -21.17176549 21.15206079 -19 22 C-19.39555286 24.29540523 -19.81713432 26.58633783 -20.25 28.875 C-20.48203125 30.15117188 -20.7140625 31.42734375 -20.953125 32.7421875 C-22 36 -22 36 -24.109375 37.4453125 C-24.73328125 37.62835938 -25.3571875 37.81140625 -26 38 C-25.34 36.35 -24.68 34.7 -24 33 C-25.98 33.495 -25.98 33.495 -28 34 C-27.505 37.465 -27.505 37.465 -27 41 C-28.65 40.67 -30.3 40.34 -32 40 C-32 41.65 -32 43.3 -32 45 C-32.99 45.495 -32.99 45.495 -34 46 C-34.33 46.99 -34.66 47.98 -35 49 C-38.69541586 49.95024979 -41.30458414 49.95024979 -45 49 C-45 48.01 -45 47.02 -45 46 C-43.68 45.34 -42.36 44.68 -41 44 C-44.24613744 42.37693128 -46.93670802 41.90669199 -50.5 41.75 C-57.31025417 41.22534296 -63.00310772 38.07364228 -69 35 C-68.1640625 33.046875 -68.1640625 33.046875 -67 31 C-64.375 30.25 -64.375 30.25 -62 30 C-62 27.69 -62 25.38 -62 23 C-61.67 23 -61.34 23 -61 23 C-60.67 24.98 -60.34 26.96 -60 29 C-58.1128125 29.0928125 -58.1128125 29.0928125 -56.1875 29.1875 C-53.98046875 29.4453125 -53.98046875 29.4453125 -52 30 C-50 32.5625 -50 32.5625 -49 35 C-47.02 34.505 -47.02 34.505 -45 34 C-44.01 30.04 -43.02 26.08 -42 22 C-42.66 22 -43.32 22 -44 22 C-44.33 23.98 -44.66 25.96 -45 28 C-45.66 28 -46.32 28 -47 28 C-46.67 26.02 -46.34 24.04 -46 22 C-45.01 21.67 -44.02 21.34 -43 21 C-43.66 19.68 -44.32 18.36 -45 17 C-43.02 16.67 -41.04 16.34 -39 16 C-39.99 15.67 -40.98 15.34 -42 15 C-42 13 -42 11 -42 9 C-42.99 9 -43.98 9 -45 9 C-44.67 7.02 -44.34 5.04 -44 3 C-41 6.625 -41 6.625 -41 10 C-40.0925 9.855625 -39.185 9.71125 -38.25 9.5625 C-33.77460227 8.91269788 -29.27840792 8.60537977 -24.76953125 8.28125 C-21.30971225 7.95237654 -21.30971225 7.95237654 -18 7 C-16.6954344 4.00384054 -16.6954344 4.00384054 -16 1 C-14.95199219 0.90912109 -14.95199219 0.90912109 -13.8828125 0.81640625 C-12.97273438 0.73261719 -12.06265625 0.64882812 -11.125 0.5625 C-10.22007812 0.48128906 -9.31515625 0.40007812 -8.3828125 0.31640625 C-1.84090909 -0.55227273 -1.84090909 -0.55227273 0 0 Z " fill="#CD0603" transform="translate(144,83)"/>
<path d="M0 0 C1.7890625 1.359375 1.7890625 1.359375 3 3 C3.24351025 6.49031356 2.49645612 8.38144562 0.31640625 11.09765625 C-3.23592891 14.79772558 -6.08905758 17.31722952 -11 19 C-8.56134348 22.30960527 -6.74020498 24.31847927 -3 26 C-2.87882812 25.30132812 -2.75765625 24.60265625 -2.6328125 23.8828125 C-2.46523437 22.97273438 -2.29765625 22.06265625 -2.125 21.125 C-1.96257812 20.22007813 -1.80015625 19.31515625 -1.6328125 18.3828125 C-1 16 -1 16 1 14 C2.32 14 3.64 14 5 14 C5 14.66 5 15.32 5 16 C6.32 16.33 7.64 16.66 9 17 C9 15.68 9 14.36 9 13 C14.28 13 19.56 13 25 13 C25.495 14.485 25.495 14.485 26 16 C25.525625 16.4125 25.05125 16.825 24.5625 17.25 C22.83733482 19.182185 22.43415125 20.48192275 22 23 C22.66 23 23.32 23 24 23 C24.33 21.02 24.66 19.04 25 17 C25.66 17 26.32 17 27 17 C26.66009167 22.37992836 26.31442207 26.53273547 23 31 C20.13275314 30.42655063 19.1385485 30.1385485 17 28 C17 27.01 17 26.02 17 25 C16.01 25.33 15.02 25.66 14 26 C13.071875 25.62875 12.14375 25.2575 11.1875 24.875 C7.92446405 23.63135941 7.92446405 23.63135941 4.625 25.375 C3.75875 25.91125 2.8925 26.4475 2 27 C2 27.99 2 28.98 2 30 C8.28965482 33.24048756 13.66670046 35.43557467 20.76171875 35.8203125 C23.70114835 36.05628765 26.26839794 36.92173603 29 38 C27.09401557 40.43542455 25.99403725 41.00158196 22.9375 41.8125 C21.968125 41.874375 20.99875 41.93625 20 42 C19.34 41.34 18.68 40.68 18 40 C16.906875 39.79375 15.81375 39.5875 14.6875 39.375 C3.70428245 36.79305012 -7.00174749 27.753261 -15 20 C-15 19.34 -15 18.68 -15 18 C-17.31 17.34 -19.62 16.68 -22 16 C-22.66 16.66 -23.32 17.32 -24 18 C-24 16.68 -24 15.36 -24 14 C-17.375 14.75 -17.375 14.75 -14 17 C-10.1806492 16.71354869 -8.53640485 15.77796722 -6 13 C-5.34 13 -4.68 13 -4 13 C-3.814375 11.700625 -3.62875 10.40125 -3.4375 9.0625 C-3.33308594 8.33160156 -3.22867188 7.60070312 -3.12109375 6.84765625 C-3.08113281 6.23792969 -3.04117188 5.62820312 -3 5 C-4.13558911 3.65333163 -4.13558911 3.65333163 -7.125 3.6875 C-11.88441372 4.07132369 -14.04902901 5.41977404 -18 8 C-15.19477571 0.14537199 -7.4419524 -1.42178437 0 0 Z " fill="#B92A04" transform="translate(75,88)"/>
<path d="M0 0 C0.66 1.65 1.32 3.3 2 5 C3.32 5 4.64 5 6 5 C6 3.68 6 2.36 6 1 C7.32 1 8.64 1 10 1 C10.66 1.66 11.32 2.32 12 3 C11.625 6.625 11.625 6.625 11 10 C11.99 10 12.98 10 14 10 C14 10.66 14 11.32 14 12 C15.32 12.33 16.64 12.66 18 13 C17.01 13.33 16.02 13.66 15 14 C14.67 14.66 14.34 15.32 14 16 C14.66 16 15.32 16 16 16 C16.33 15.34 16.66 14.68 17 14 C17.33 14.99 17.66 15.98 18 17 C13.43253488 19.25169623 9.17722773 19.42423979 4.1875 19.625 C3.00510742 19.68300781 3.00510742 19.68300781 1.79882812 19.7421875 C-0.1337538 19.83588844 -2.06684376 19.91900779 -4 20 C-4.33 20.66 -4.66 21.32 -5 22 C-5.66 22 -6.32 22 -7 22 C-7.33 21.01 -7.66 20.02 -8 19 C-9.65 19 -11.3 19 -13 19 C-12.505 18.484375 -12.01 17.96875 -11.5 17.4375 C-9.48864972 14.1690558 -9.79395825 11.77743211 -10 8 C-10 7.01 -10 6.02 -10 5 C-9.360625 4.896875 -8.72125 4.79375 -8.0625 4.6875 C-7.381875 4.460625 -6.70125 4.23375 -6 4 C-5.67 3.01 -5.34 2.02 -5 1 C-2 0 -2 0 0 0 Z " fill="#D00203" transform="translate(88,82)"/>
<path d="M0 0 C0 0.99 0 1.98 0 3 C-1.2065625 4.175625 -1.2065625 4.175625 -2.4375 5.375 C-5.09849617 8.10089852 -5.68258573 9.2968335 -6 13 C-7.98 13 -9.96 13 -12 13 C-11.67 14.65 -11.34 16.3 -11 18 C-12.32 18.33 -13.64 18.66 -15 19 C-14.67 17.68 -14.34 16.36 -14 15 C-14.99 15.495 -14.99 15.495 -16 16 C-16.57422496 18.69885731 -17 21.23792697 -17 24 C-16.67 24.33 -16.34 24.66 -16 25 C-15.195625 24.01 -14.39125 23.02 -13.5625 22 C-12.716875 21.01 -11.87125 20.02 -11 19 C-10.67 19 -10.34 19 -10 19 C-10.50797009 23.3177458 -11.19682779 27.03302114 -13 31 C-13.99 30.34 -14.98 29.68 -16 29 C-16.61875 29.495 -17.2375 29.99 -17.875 30.5 C-20 32 -20 32 -22 32 C-22.33 34.31 -22.66 36.62 -23 39 C-23.33 39 -23.66 39 -24 39 C-24 37.02 -24 35.04 -24 33 C-24.66 33.99 -25.32 34.98 -26 36 C-26.495 34.515 -26.495 34.515 -27 33 C-27.66 33 -28.32 33 -29 33 C-29.33 32.34 -29.66 31.68 -30 31 C-30.99 31.33 -31.98 31.66 -33 32 C-33 31.01 -33 30.02 -33 29 C-29.04 28.505 -29.04 28.505 -25 28 C-24.896875 27.401875 -24.79375 26.80375 -24.6875 26.1875 C-23.91123545 23.71756736 -22.92911079 22.67748765 -21 21 C-22.32 20.67 -23.64 20.34 -25 20 C-25 19.34 -25 18.68 -25 18 C-25.66 18 -26.32 18 -27 18 C-27 17.01 -27 16.02 -27 15 C-25.02 14.67 -23.04 14.34 -21 14 C-21.6954344 10.99615946 -21.6954344 10.99615946 -23 8 C-25.03243548 7.03122943 -25.03243548 7.03122943 -27 7 C-27 6.34 -27 5.68 -27 5 C-25.02 5 -23.04 5 -21 5 C-20.67 6.65 -20.34 8.3 -20 10 C-19.34 10 -18.68 10 -18 10 C-18.33 8.68 -18.66 7.36 -19 6 C-18.38511719 6.03480469 -17.77023438 6.06960937 -17.13671875 6.10546875 C-16.32847656 6.13253906 -15.52023438 6.15960938 -14.6875 6.1875 C-13.88699219 6.22230469 -13.08648437 6.25710937 -12.26171875 6.29296875 C-9.47940234 5.93256507 -8.86786105 4.99343154 -7 3 C-6.01 3 -5.02 3 -4 3 C-4 2.34 -4 1.68 -4 1 C-2.68 0.67 -1.36 0.34 0 0 Z " fill="#C60808" transform="translate(183,83)"/>
<path d="M0 0 C-0.66 0 -1.32 0 -2 0 C-2 0.66 -2 1.32 -2 2 C-3.43657245 2.33730842 -4.87430093 2.66969591 -6.3125 3 C-7.51326172 3.2784375 -7.51326172 3.2784375 -8.73828125 3.5625 C-11 4 -11 4 -14 4 C-14.66 5.98 -15.32 7.96 -16 10 C-18.64 10 -21.28 10 -24 10 C-24 10.66 -24 11.32 -24 12 C-27.63 12 -31.26 12 -35 12 C-35.33 13.65 -35.66 15.3 -36 17 C-35.01 17.33 -34.02 17.66 -33 18 C-31.3125 19.5625 -31.3125 19.5625 -30 21 C-29.34 20.34 -28.68 19.68 -28 19 C-26.68 19 -25.36 19 -24 19 C-24 19.66 -24 20.32 -24 21 C-24.66 21.33 -25.32 21.66 -26 22 C-26.72693904 23.97888961 -27.39816251 25.97954558 -28 28 C-27.34 28 -26.68 28 -26 28 C-25.67 26.02 -25.34 24.04 -25 22 C-24.34 22 -23.68 22 -23 22 C-22 27.75 -22 27.75 -22 30 C-24.64 29.67 -27.28 29.34 -30 29 C-30.66 27.35 -31.32 25.7 -32 24 C-32.66 24 -33.32 24 -34 24 C-34 23.01 -34 22.02 -34 21 C-34.66 21 -35.32 21 -36 21 C-35.649375 21.5775 -35.29875 22.155 -34.9375 22.75 C-33.85082593 25.35801776 -34.06934867 26.39417629 -35 29 C-38.28696233 29.79953138 -39.71023192 30.09658936 -43 29 C-42.67 26.69 -42.34 24.38 -42 22 C-42.66 22 -43.32 22 -44 22 C-44.33 23.98 -44.66 25.96 -45 28 C-45.66 28 -46.32 28 -47 28 C-46.67 26.02 -46.34 24.04 -46 22 C-45.01 21.67 -44.02 21.34 -43 21 C-43.66 19.68 -44.32 18.36 -45 17 C-43.02 16.67 -41.04 16.34 -39 16 C-39.99 15.67 -40.98 15.34 -42 15 C-42 13 -42 11 -42 9 C-42.99 9 -43.98 9 -45 9 C-44.67 7.02 -44.34 5.04 -44 3 C-41 6.625 -41 6.625 -41 10 C-40.0925 9.855625 -39.185 9.71125 -38.25 9.5625 C-33.77460227 8.91269788 -29.27840792 8.60537977 -24.76953125 8.28125 C-21.30971225 7.95237654 -21.30971225 7.95237654 -18 7 C-16.6954344 4.00384054 -16.6954344 4.00384054 -16 1 C-14.95199219 0.90912109 -14.95199219 0.90912109 -13.8828125 0.81640625 C-12.97273438 0.73261719 -12.06265625 0.64882812 -11.125 0.5625 C-10.22007812 0.48128906 -9.31515625 0.40007812 -8.3828125 0.31640625 C-1.84090909 -0.55227273 -1.84090909 -0.55227273 0 0 Z " fill="#C40C05" transform="translate(144,83)"/>
<path d="M0 0 C1.7890625 1.359375 1.7890625 1.359375 3 3 C3.24351025 6.49031356 2.49645612 8.38144562 0.31640625 11.09765625 C-3.23592891 14.79772558 -6.08905758 17.31722952 -11 19 C-5.37205124 26.64823806 3.93403636 32.17668952 13 35 C15.56817861 35.3903007 18.09969033 35.61938347 20.69140625 35.78515625 C23.64882577 36.06038142 26.24639685 36.91305139 29 38 C27.09401557 40.43542455 25.99403725 41.00158196 22.9375 41.8125 C21.968125 41.874375 20.99875 41.93625 20 42 C19.34 41.34 18.68 40.68 18 40 C16.906875 39.79375 15.81375 39.5875 14.6875 39.375 C3.70428245 36.79305012 -7.00174749 27.753261 -15 20 C-15 19.34 -15 18.68 -15 18 C-17.31 17.34 -19.62 16.68 -22 16 C-22.66 16.66 -23.32 17.32 -24 18 C-24 16.68 -24 15.36 -24 14 C-17.375 14.75 -17.375 14.75 -14 17 C-10.1806492 16.71354869 -8.53640485 15.77796722 -6 13 C-5.34 13 -4.68 13 -4 13 C-3.814375 11.700625 -3.62875 10.40125 -3.4375 9.0625 C-3.33308594 8.33160156 -3.22867188 7.60070312 -3.12109375 6.84765625 C-3.08113281 6.23792969 -3.04117188 5.62820312 -3 5 C-4.13558911 3.65333163 -4.13558911 3.65333163 -7.125 3.6875 C-11.88441372 4.07132369 -14.04902901 5.41977404 -18 8 C-15.19477571 0.14537199 -7.4419524 -1.42178437 0 0 Z " fill="#FBC726" transform="translate(75,88)"/>
<path d="M0 0 C0.99 0.33 1.98 0.66 3 1 C2.125 8.625 2.125 8.625 1 12 C0.77820215 13.89212737 0.59385985 15.78884472 0.4375 17.6875 C0.35371094 18.68136719 0.26992187 19.67523438 0.18359375 20.69921875 C0.09271484 21.83810547 0.09271484 21.83810547 0 23 C1.32 23 2.64 23 4 23 C4.625 25.3125 4.625 25.3125 5 28 C4.34 28.99 3.68 29.98 3 31 C2.01 30.67 1.02 30.34 0 30 C0.33 28.68 0.66 27.36 1 26 C0.34 25.67 -0.32 25.34 -1 25 C-1.33 26.65 -1.66 28.3 -2 30 C-2.66 30 -3.32 30 -4 30 C-3.67 28.02 -3.34 26.04 -3 24 C-3.66 24.33 -4.32 24.66 -5 25 C-5.33 25.99 -5.66 26.98 -6 28 C-6.66 27.67 -7.32 27.34 -8 27 C-8 27.99 -8 28.98 -8 30 C-9.32 30 -10.64 30 -12 30 C-12.66 29.34 -13.32 28.68 -14 28 C-14.66 28.66 -15.32 29.32 -16 30 C-16.99 29.67 -17.98 29.34 -19 29 C-18.34 28.67 -17.68 28.34 -17 28 C-17 27.01 -17 26.02 -17 25 C-16.01 25 -15.02 25 -14 25 C-14 23.35 -14 21.7 -14 20 C-12.68 20 -11.36 20 -10 20 C-10 18.02 -10 16.04 -10 14 C-8.68 13.67 -7.36 13.34 -6 13 C-6.66 14.65 -7.32 16.3 -8 18 C-4.70121264 16.27362459 -4.70121264 16.27362459 -4.12109375 12.8125 C-3.89550781 11.554375 -3.66992188 10.29625 -3.4375 9 C-2.20525657 2.20525657 -2.20525657 2.20525657 0 0 Z " fill="#BF2505" transform="translate(126,103)"/>
<path d="M0 0 C0.66 0.99 1.32 1.98 2 3 C3.96361864 3.57748803 3.96361864 3.57748803 6.125 3.6875 C7.40375 3.790625 8.6825 3.89375 10 4 C10.66 3.01 11.32 2.02 12 1 C12.33 2.32 12.66 3.64 13 5 C13.33 4.67 13.66 4.34 14 4 C15.85287502 3.92773498 17.70833878 3.9161878 19.5625 3.9375 C20.57441406 3.94652344 21.58632813 3.95554687 22.62890625 3.96484375 C23.80259766 3.98224609 23.80259766 3.98224609 25 4 C24.01 5.485 24.01 5.485 23 7 C28.76081841 8.2982126 34.08739655 9.25706972 40 9 C40 8.34 40 7.68 40 7 C41.27875 6.7525 42.5575 6.505 43.875 6.25 C47.26747318 5.48009414 47.26747318 5.48009414 49.5 2.875 C49.665 2.25625 49.83 1.6375 50 1 C52.31 1 54.62 1 57 1 C57.495 2.485 57.495 2.485 58 4 C57.34 4.33 56.68 4.66 56 5 C57.32 5.33 58.64 5.66 60 6 C60.625 7.875 60.625 7.875 61 10 C60.34 10.66 59.68 11.32 59 12 C59 10.68 59 9.36 59 8 C57.68 8 56.36 8 55 8 C55 9.32 55 10.64 55 12 C53.35 12.33 51.7 12.66 50 13 C49.505 10.03 49.505 10.03 49 7 C45.25332798 8.6327851 45.25332798 8.6327851 42 11 C40.16797402 11.0289812 38.33472632 10.98656739 36.50390625 10.9140625 C35.38822266 10.87023437 34.27253906 10.82640625 33.12304688 10.78125 C31.94806641 10.7296875 30.77308594 10.678125 29.5625 10.625 C28.39138672 10.58117187 27.22027344 10.53734375 26.01367188 10.4921875 C17.25673576 10.12836788 17.25673576 10.12836788 15 9 C15 8.34 15 7.68 15 7 C13.205625 7.061875 13.205625 7.061875 11.375 7.125 C5.67073144 7.11492179 1.38868149 5.71349972 -3 2 C-2.01 2 -1.02 2 0 2 C0 1.34 0 0.68 0 0 Z " fill="#BD2728" transform="translate(39,75)"/>
<path d="M0 0 C0 0.99 0 1.98 0 3 C-1.98 3.99 -1.98 3.99 -4 5 C-3.67 5.33 -3.34 5.66 -3 6 C-2.64102564 12.46153846 -2.64102564 12.46153846 -5 16 C-3.68 16.33 -2.36 16.66 -1 17 C-1 17.99 -1 18.98 -1 20 C-0.34 20 0.32 20 1 20 C1.33 19.34 1.66 18.68 2 18 C2 18.99 2 19.98 2 21 C0.35 21 -1.3 21 -3 21 C-2.67 20.01 -2.34 19.02 -2 18 C-4.54251602 18.24431996 -4.54251602 18.24431996 -7 20 C-8.08008783 23.27825654 -8.57730231 26.58056494 -9 30 C-13.31618166 30 -14.92789659 27.86729652 -18 25 C-18 24.34 -18 23.68 -18 23 C-16.390625 21.6328125 -16.390625 21.6328125 -14.25 20.125 C-8.32550181 16.05801269 -8.32550181 16.05801269 -5.125 9.875 C-5.08375 8.92625 -5.0425 7.9775 -5 7 C-7.43907744 4.56092256 -8.25868942 4.65108712 -11.625 4.5625 C-17.20480436 4.63549163 -20.68152794 6.62242409 -25 10 C-24.67 8.02 -24.34 6.04 -24 4 C-23.39671875 3.86722656 -22.7934375 3.73445313 -22.171875 3.59765625 C-21.37265625 3.42105469 -20.5734375 3.24445313 -19.75 3.0625 C-18.56664062 2.80146484 -18.56664062 2.80146484 -17.359375 2.53515625 C-15.90632049 2.20557269 -14.45944354 1.84479072 -13.02734375 1.43359375 C-10.57092883 0.90823333 -8.32128165 0.94070826 -5.8125 1 C-4.20877332 1.037569 -2.60348584 1.04673183 -1 1 C-0.67 0.67 -0.34 0.34 0 0 Z " fill="#BD1C02" transform="translate(82,84)"/>
<path d="M0 0 C0.66 0.33 1.32 0.66 2 1 C1.67 4.63 1.34 8.26 1 12 C1.66 12 2.32 12 3 12 C3 19.92 3 27.84 3 36 C2.34 36 1.68 36 1 36 C1 36.66 1 37.32 1 38 C3.97 38.66 6.94 39.32 10 40 C6.81237635 42.12508244 4.73487777 42.5020163 1 43 C0.67 41.68 0.34 40.36 0 39 C-0.66 39 -1.32 39 -2 39 C-1.67 36.36 -1.34 33.72 -1 31 C-1.66 31 -2.32 31 -3 31 C-3 30.34 -3 29.68 -3 29 C-3.66 29.33 -4.32 29.66 -5 30 C-6.99960012 30.039992 -9.00047242 30.04346799 -11 30 C-11 29.34 -11 28.68 -11 28 C-8.03 27.67 -5.06 27.34 -2 27 C-2.33 24.36 -2.66 21.72 -3 19 C-2.01 19.33 -1.02 19.66 0 20 C0.33 17.69 0.66 15.38 1 13 C0.34 13 -0.32 13 -1 13 C-1.02696365 11.20841511 -1.04637917 9.41671527 -1.0625 7.625 C-1.07410156 6.62726563 -1.08570313 5.62953125 -1.09765625 4.6015625 C-1 2 -1 2 0 0 Z " fill="#B63135" transform="translate(34,78)"/>
<path d="M0 0 C1.46015291 0.28241641 2.91809793 0.57626614 4.375 0.875 C5.59316406 1.11863281 5.59316406 1.11863281 6.8359375 1.3671875 C9 2 9 2 11 4 C11.99 4.165 12.98 4.33 14 4.5 C17 5 17 5 19 7 C19.8563027 9.63233792 20.38929927 12.29546818 21 15 C21.66 15 22.32 15 23 15 C22.67 16.32 22.34 17.64 22 19 C21.66226563 18.50628906 21.32453125 18.01257813 20.9765625 17.50390625 C20.53054687 16.86324219 20.08453125 16.22257812 19.625 15.5625 C19.18414062 14.92441406 18.74328125 14.28632813 18.2890625 13.62890625 C17.07839147 11.86259072 17.07839147 11.86259072 15 11 C15 10.01 15 9.02 15 8 C14.34 8 13.68 8 13 8 C13 8.66 13 9.32 13 10 C5.61146629 12.46284457 -1.18505306 11.34066027 -8 8 C-9.98821313 7.60235737 -11.98732362 7.24544834 -14 7 C-11 5 -11 5 -8.25 5.25 C-4.78534497 6.04953578 -1.40536485 6.97839055 2 8 C2.99 7.01 3.98 6.02 5 5 C5.66 5.33 6.32 5.66 7 6 C7 5.34 7 4.68 7 4 C4.03 3.505 4.03 3.505 1 3 C0.67 2.01 0.34 1.02 0 0 Z " fill="#BD160E" transform="translate(84,125)"/>
<path d="M0 0 C1.65 0 3.3 0 5 0 C3.68 0.33 2.36 0.66 1 1 C0.9071875 1.99 0.9071875 1.99 0.8125 3 C-0.32522001 7.20081234 -2.21411336 10.65067562 -5 14 C-7.5 15 -7.5 15 -10 15 C-10.928125 15.020625 -11.85625 15.04125 -12.8125 15.0625 C-13.534375 15.041875 -14.25625 15.02125 -15 15 C-15 14.34 -15 13.68 -15 13 C-15.66 13 -16.32 13 -17 13 C-17 12.34 -17 11.68 -17 11 C-17.845625 11.53625 -18.69125 12.0725 -19.5625 12.625 C-23.84517642 14.33807057 -25.77749945 13.60455021 -30 12 C-28.35 10.68 -26.7 9.36 -25 8 C-24.67 8.99 -24.34 9.98 -24 11 C-22.68 11 -21.36 11 -20 11 C-20 10.01 -20 9.02 -20 8 C-19.34 8 -18.68 8 -18 8 C-18 7.01 -18 6.02 -18 5 C-17.01 5 -16.02 5 -15 5 C-15.33 6.98 -15.66 8.96 -16 11 C-15.34 11 -14.68 11 -14 11 C-13.67 9.35 -13.34 7.7 -13 6 C-12.01 6.33 -11.02 6.66 -10 7 C-10.33 8.32 -10.66 9.64 -11 11 C-10.34 11 -9.68 11 -9 11 C-8.67 9.02 -8.34 7.04 -8 5 C-4.98968256 4.06576355 -4.13349732 3.95550089 -1 5 C-0.67 3.35 -0.34 1.7 0 0 Z " fill="#BB130F" transform="translate(138,122)"/>
<path d="M0 0 C0.33 0.33 0.66 0.66 1 1 C3.67058851 1.14115161 6.32432238 1.04247107 9 1 C7.25 3.0625 7.25 3.0625 5 5 C3.15625 4.71875 3.15625 4.71875 1 4 C0.22140625 3.75121094 -0.5571875 3.50242187 -1.359375 3.24609375 C-2.14828125 2.97925781 -2.9371875 2.71242188 -3.75 2.4375 C-4.54921875 2.16808594 -5.3484375 1.89867188 -6.171875 1.62109375 C-6.77515625 1.41613281 -7.3784375 1.21117188 -8 1 C-7.67 1.66 -7.34 2.32 -7 3 C-6.01 2.67 -5.02 2.34 -4 2 C0.11780358 3.95053854 2.84371423 6.77031224 6 10 C10.97845887 14.67803463 16.08114421 18.58406461 22 22 C18.3046875 23.140625 18.3046875 23.140625 15.5625 21.875 C12.74291615 19.81188987 10.43670594 17.49918558 8 15 C7.236875 14.443125 6.47375 13.88625 5.6875 13.3125 C4.8521875 12.6628125 4.8521875 12.6628125 4 12 C4 11.34 4 10.68 4 10 C2.73542969 9.83564453 2.73542969 9.83564453 1.4453125 9.66796875 C0.34960938 9.50941406 -0.74609375 9.35085937 -1.875 9.1875 C-2.96554688 9.03667969 -4.05609375 8.88585937 -5.1796875 8.73046875 C-8 8 -8 8 -10 5 C-10.125 2.3125 -10.125 2.3125 -10 0 C-6.28523623 -1.23825459 -3.81171187 -0.70587257 0 0 Z " fill="#C21E04" transform="translate(59,101)"/>
<path d="M0 0 C-0.94340875 3.12050587 -1.84124075 5.755755 -3.625 8.5 C-5.28803677 11.52370321 -5.23714614 13.60090532 -5 17 C-5.66 17 -6.32 17 -7 17 C-7.33 15.68 -7.66 14.36 -8 13 C-9.7015625 12.566875 -9.7015625 12.566875 -11.4375 12.125 C-12.613125 11.75375 -13.78875 11.3825 -15 11 C-15.33 10.34 -15.66 9.68 -16 9 C-17.11375 9.12375 -17.11375 9.12375 -18.25 9.25 C-21.78157027 8.92894816 -22.76630364 7.64734383 -25 5 C-21 5 -21 5 -19 6 C-19 6.66 -19 7.32 -19 8 C-18.443125 7.71125 -17.88625 7.4225 -17.3125 7.125 C-15 6 -15 6 -12.5 5.125 C-9.66502521 3.84926135 -8.14457205 2.21605778 -6 0 C-3 -1 -3 -1 0 0 Z " fill="#BF0D0F" transform="translate(170,76)"/>
<path d="M0 0 C0 0.66 0 1.32 0 2 C1.32 2.33 2.64 2.66 4 3 C4 2.01 4 1.02 4 0 C4.99 0 5.98 0 7 0 C6.125 7.75 6.125 7.75 5 10 C4.05125 10.309375 3.1025 10.61875 2.125 10.9375 C-0.84689902 11.94794567 -2.06088831 12.62997461 -4 15 C-5.32 14.34 -6.64 13.68 -8 13 C-7.50318324 4.98240537 -7.50318324 4.98240537 -5.6875 1.4375 C-4 0 -4 0 0 0 Z " fill="#C52E05" transform="translate(80,102)"/>
<path d="M0 0 C0 0.99 0 1.98 0 3 C-1.2065625 4.175625 -1.2065625 4.175625 -2.4375 5.375 C-5.09849617 8.10089852 -5.68258573 9.2968335 -6 13 C-7.98 13 -9.96 13 -12 13 C-11.67 14.65 -11.34 16.3 -11 18 C-12.32 18.33 -13.64 18.66 -15 19 C-14.67 17.68 -14.34 16.36 -14 15 C-14.66 15 -15.32 15 -16 15 C-16 13.35 -16 11.7 -16 10 C-17.98 10.99 -17.98 10.99 -20 12 C-20 11.34 -20 10.68 -20 10 C-19.34 10 -18.68 10 -18 10 C-18.33 8.68 -18.66 7.36 -19 6 C-18.38511719 6.03480469 -17.77023438 6.06960937 -17.13671875 6.10546875 C-16.32847656 6.13253906 -15.52023438 6.15960938 -14.6875 6.1875 C-13.88699219 6.22230469 -13.08648437 6.25710937 -12.26171875 6.29296875 C-9.47940234 5.93256507 -8.86786105 4.99343154 -7 3 C-6.01 3 -5.02 3 -4 3 C-4 2.34 -4 1.68 -4 1 C-2.68 0.67 -1.36 0.34 0 0 Z " fill="#FCF2F0" transform="translate(183,83)"/>
<path d="M0 0 C1.9375 0.375 1.9375 0.375 4 1 C6.83967231 1 9.23735711 0.59732819 12 0 C12 0.66 12 1.32 12 2 C11.01 2.495 11.01 2.495 10 3 C9.27306096 4.97888961 8.60183749 6.97954558 8 9 C8.66 9 9.32 9 10 9 C10.33 7.02 10.66 5.04 11 3 C11.66 3 12.32 3 13 3 C14 8.75 14 8.75 14 11 C11.36 10.67 8.72 10.34 6 10 C5.34 8.35 4.68 6.7 4 5 C3.34 5 2.68 5 2 5 C2 4.01 2 3.02 2 2 C1.34 2 0.68 2 0 2 C0.5259375 2.86625 0.5259375 2.86625 1.0625 3.75 C2.14917407 6.35801776 1.93065133 7.39417629 1 10 C-0.65 10.33 -2.3 10.66 -4 11 C-4.33 9.68 -4.66 8.36 -5 7 C-4.34 7 -3.68 7 -3 7 C-3 7.66 -3 8.32 -3 9 C-2.34 9 -1.68 9 -1 9 C-1.20625 7.88625 -1.4125 6.7725 -1.625 5.625 C-1.74875 4.42875 -1.8725 3.2325 -2 2 C-1.34 1.34 -0.68 0.68 0 0 Z " fill="#F8BC31" transform="translate(108,102)"/>
<path d="M0 0 C0.66 0.99 1.32 1.98 2 3 C3.96361864 3.57748803 3.96361864 3.57748803 6.125 3.6875 C7.40375 3.790625 8.6825 3.89375 10 4 C10.66 3.01 11.32 2.02 12 1 C12.33 2.32 12.66 3.64 13 5 C13.33 4.67 13.66 4.34 14 4 C15.85287502 3.92773498 17.70833878 3.9161878 19.5625 3.9375 C20.57441406 3.94652344 21.58632813 3.95554687 22.62890625 3.96484375 C23.80259766 3.98224609 23.80259766 3.98224609 25 4 C24.01 5.485 24.01 5.485 23 7 C28.28 7.99 33.56 8.98 39 10 C39 10.33 39 10.66 39 11 C35.37467934 10.86152362 31.74984096 10.71297357 28.125 10.5625 C26.57619141 10.50352539 26.57619141 10.50352539 24.99609375 10.44335938 C24.00996094 10.40146484 23.02382813 10.35957031 22.0078125 10.31640625 C21.09660645 10.27974854 20.18540039 10.24309082 19.24658203 10.20532227 C17 10 17 10 15 9 C15 8.34 15 7.68 15 7 C13.205625 7.061875 13.205625 7.061875 11.375 7.125 C5.67073144 7.11492179 1.38868149 5.71349972 -3 2 C-2.01 2 -1.02 2 0 2 C0 1.34 0 0.68 0 0 Z " fill="#AF2729" transform="translate(39,75)"/>
<path d="M0 0 C0.99 0.33 1.98 0.66 3 1 C2.55230183 7.04392525 1.49961114 15.50038886 -3 20 C-5.4375 20.1875 -5.4375 20.1875 -8 20 C-8.66 19.34 -9.32 18.68 -10 18 C-10 16.68 -10 15.36 -10 14 C-8.68 13.67 -7.36 13.34 -6 13 C-6.66 14.65 -7.32 16.3 -8 18 C-4.70121264 16.27362459 -4.70121264 16.27362459 -4.12109375 12.8125 C-3.89550781 11.554375 -3.66992188 10.29625 -3.4375 9 C-2.20525657 2.20525657 -2.20525657 2.20525657 0 0 Z " fill="#F7B02E" transform="translate(126,103)"/>
<path d="M0 0 C0.28875 0.639375 0.5775 1.27875 0.875 1.9375 C1.82823451 4.15206079 1.82823451 4.15206079 4 5 C3.60444714 7.29540523 3.18286568 9.58633783 2.75 11.875 C2.40195313 13.78925781 2.40195313 13.78925781 2.046875 15.7421875 C1 19 1 19 -1.109375 20.4453125 C-1.73328125 20.62835938 -2.3571875 20.81140625 -3 21 C-2.34 19.02 -1.68 17.04 -1 15 C-1.66 15 -2.32 15 -3 15 C-3.33 14.01 -3.66 13.02 -4 12 C-2.35 12.33 -0.7 12.66 1 13 C0.835 12.05125 0.67 11.1025 0.5 10.125 C0 7 0 7 0 5 C-0.66 5 -1.32 5 -2 5 C-2.33 6.98 -2.66 8.96 -3 11 C-3.66 11 -4.32 11 -5 11 C-4.67 9.02 -4.34 7.04 -4 5 C-3.01 4.67 -2.02 4.34 -1 4 C-1 3.34 -1 2.68 -1 2 C-2.1446875 2.495 -2.1446875 2.495 -3.3125 3 C-6 4 -6 4 -9 4 C-9.33 3.34 -9.66 2.68 -10 2 C-6.49223216 0.39644899 -3.85645121 -0.22036864 0 0 Z " fill="#BA2602" transform="translate(121,100)"/>
<path d="M0 0 C1.32 0 2.64 0 4 0 C4 0.66 4 1.32 4 2 C3.525625 2.45375 3.05125 2.9075 2.5625 3.375 C0.77906263 5.22977487 0.4308007 6.50135592 0 9 C0.66 9 1.32 9 2 9 C2.33 7.02 2.66 5.04 3 3 C3.66 3 4.32 3 5 3 C4.66009167 8.37992836 4.31442207 12.53273547 1 17 C-1.86724686 16.42655063 -2.8614515 16.1385485 -5 14 C-5 13.01 -5 12.02 -5 11 C-4.01 11 -3.02 11 -2 11 C-2 12.32 -2 13.64 -2 15 C-1.34 15 -0.68 15 0 15 C0.33 13.35 0.66 11.7 1 10 C-0.32 9.67 -1.64 9.34 -3 9 C-2.25 2.25 -2.25 2.25 0 0 Z " fill="#F9B039" transform="translate(97,102)"/>
<path d="M0 0 C4.32432459 0.66528071 8.56214474 1.55706165 12.82421875 2.53125 C14.64025949 2.92249756 16.47560013 3.22273209 18.3125 3.5 C20.89018218 3.97956878 22.74160478 4.69707968 25 6 C20.74226804 9.04123711 20.74226804 9.04123711 17.75 8.875 C16.8425 8.58625 15.935 8.2975 15 8 C14.30519531 7.80019531 13.61039063 7.60039062 12.89453125 7.39453125 C7.98057386 5.90470497 4.07568164 4.13513972 0 1 C0 0.67 0 0.34 0 0 Z " fill="#FCC62C" transform="translate(79,121)"/>
<path d="M0 0 C0.33 0.99 0.66 1.98 1 3 C-2.75 6 -2.75 6 -5 6 C-2.18679041 9.87316296 0.52921739 12.23113442 4.625 14.6875 C9.84067797 17.84067797 9.84067797 17.84067797 12 20 C11.01 20.33 10.02 20.66 9 21 C6.546875 19.55859375 6.546875 19.55859375 3.75 17.4375 C2.77933594 16.70144531 1.80867188 15.96539062 0.80859375 15.20703125 C-2.56812532 12.55355938 -5.8592273 9.93138786 -9 7 C-9 6.34 -9 5.68 -9 5 C-11.31 4.34 -13.62 3.68 -16 3 C-16.66 3.66 -17.32 4.32 -18 5 C-18 3.68 -18 2.36 -18 1 C-11.375 1.75 -11.375 1.75 -8 4 C-5.01896641 3.77642248 -3.46564453 3.4014177 -1.1875 1.4375 C-0.795625 0.963125 -0.40375 0.48875 0 0 Z " fill="#F7A544" transform="translate(69,101)"/>
<path d="M0 0 C0.75 1.75 0.75 1.75 1 4 C-1.92480201 8.14346952 -5.29242649 8.67857586 -10 10 C-11.70294787 11.28667172 -13.37946188 12.61096733 -15 14 C-15.66 14 -16.32 14 -17 14 C-16.67 14.99 -16.34 15.98 -16 17 C-16.66 17 -17.32 17 -18 17 C-18.33 17.66 -18.66 18.32 -19 19 C-20.98 18.67 -22.96 18.34 -25 18 C-24.67 17.34 -24.34 16.68 -24 16 C-22.68 16 -21.36 16 -20 16 C-19.62875 15.0925 -19.2575 14.185 -18.875 13.25 C-16.67912612 9.44381861 -14.89673289 7.98656971 -11 6 C-9 6 -7 6 -5 6 C-2.69724444 4.1329009 -1.32176129 2.64352259 0 0 Z " fill="#FAE9E1" transform="translate(136,130)"/>
<path d="M0 0 C0.99 0 1.98 0 3 0 C2.67 1.98 2.34 3.96 2 6 C2.66 6 3.32 6 4 6 C4.33 4.35 4.66 2.7 5 1 C5.99 1.33 6.98 1.66 8 2 C7.67 4.31 7.34 6.62 7 9 C5.68 9.33 4.36 9.66 3 10 C3 9.34 3 8.68 3 8 C2.34 8 1.68 8 1 8 C1 7.34 1 6.68 1 6 C-0.2684375 6.804375 -0.2684375 6.804375 -1.5625 7.625 C-5.84517642 9.33807057 -7.77749945 8.60455021 -12 7 C-10.35 5.68 -8.7 4.36 -7 3 C-6.67 3.99 -6.34 4.98 -6 6 C-4.68 6 -3.36 6 -2 6 C-2 5.01 -2 4.02 -2 3 C-1.34 3 -0.68 3 0 3 C0 2.01 0 1.02 0 0 Z " fill="#B52708" transform="translate(120,127)"/>
<path d="M0 0 C-0.66 0 -1.32 0 -2 0 C-2 0.66 -2 1.32 -2 2 C-3.43657245 2.33730842 -4.87430093 2.66969591 -6.3125 3 C-7.51326172 3.2784375 -7.51326172 3.2784375 -8.73828125 3.5625 C-11 4 -11 4 -14 4 C-14.66 5.98 -15.32 7.96 -16 10 C-18.64 10 -21.28 10 -24 10 C-24 10.66 -24 11.32 -24 12 C-25.98 12 -27.96 12 -30 12 C-28 9 -28 9 -25.6171875 8.26953125 C-24.71226563 8.11871094 -23.80734375 7.96789062 -22.875 7.8125 C-21.96492188 7.65394531 -21.05484375 7.49539062 -20.1171875 7.33203125 C-19.06917969 7.16767578 -19.06917969 7.16767578 -18 7 C-17.34 5.02 -16.68 3.04 -16 1 C-14.95199219 0.90912109 -14.95199219 0.90912109 -13.8828125 0.81640625 C-12.97273438 0.73261719 -12.06265625 0.64882812 -11.125 0.5625 C-10.22007812 0.48128906 -9.31515625 0.40007812 -8.3828125 0.31640625 C-1.84090909 -0.55227273 -1.84090909 -0.55227273 0 0 Z " fill="#B92223" transform="translate(144,83)"/>
<path d="M0 0 C1.32 0.33 2.64 0.66 4 1 C3.34 2.32 2.68 3.64 2 5 C3.32 5.66 4.64 6.32 6 7 C5.01 7.33 4.02 7.66 3 8 C2.67 10.31 2.34 12.62 2 15 C1.67 15 1.34 15 1 15 C1 13.02 1 11.04 1 9 C0.01 10.485 0.01 10.485 -1 12 C-1.33 11.01 -1.66 10.02 -2 9 C-2.66 9 -3.32 9 -4 9 C-4.33 8.34 -4.66 7.68 -5 7 C-5.99 7.33 -6.98 7.66 -8 8 C-8 7.01 -8 6.02 -8 5 C-5.36 4.67 -2.72 4.34 0 4 C0 2.68 0 1.36 0 0 Z " fill="#CB4542" transform="translate(158,107)"/>
<path d="M0 0 C0.33 0.99 0.66 1.98 1 3 C1.66 3 2.32 3 3 3 C3 3.99 3 4.98 3 6 C4.65 6 6.3 6 8 6 C8.25 12.625 8.25 12.625 6 16 C5.60986284 17.9896995 5.26797351 19.99019869 5 22 C4.34 21.67 3.68 21.34 3 21 C3.309375 19.96875 3.61875 18.9375 3.9375 17.875 C4.87502812 14.61027443 5.50772702 11.36386538 6 8 C4.35 9.98 2.7 11.96 1 14 C0.67 13.34 0.34 12.68 0 12 C-0.66 11.67 -1.32 11.34 -2 11 C-1.67 10.484375 -1.34 9.96875 -1 9.4375 C0.32010877 6.21973488 0.13242105 3.4429472 0 0 Z " fill="#F3D0CE" transform="translate(166,95)"/>
<path d="M0 0 C0 3 0 3 -2.25 5.5 C-8.3 11 -8.3 11 -13 11 C-11.55873214 7.63704165 -9.79407345 5.37072898 -7 3 C-6.01 3 -5.02 3 -4 3 C-4 2.34 -4 1.68 -4 1 C-2.68 0.67 -1.36 0.34 0 0 Z " fill="#A62A2F" transform="translate(183,83)"/>
<path d="M0 0 C1.20076172 0.96292969 1.20076172 0.96292969 2.42578125 1.9453125 C4.1370245 3.31937745 5.84066745 4.70298222 7.53515625 6.09765625 C9.93234988 7.94778826 12.37407792 9.49746704 15 11 C13.3125 11.6875 13.3125 11.6875 11 12 C6.87845729 10.09774952 4.13892777 7.21941309 1 4 C0.236875 3.443125 -0.52625 2.88625 -1.3125 2.3125 C-1.869375 1.879375 -2.42625 1.44625 -3 1 C-3 0.34 -3 -0.32 -3 -1 C-5.97 -1.33 -8.94 -1.66 -12 -2 C-12 -2.33 -12 -2.66 -12 -3 C-6.58414696 -4.54738658 -4.15268801 -3.39182023 0 0 Z " fill="#B91C01" transform="translate(66,112)"/>
<path d="M0 0 C0.33 3.3 0.66 6.6 1 10 C-2.91841827 8.69386058 -5.32640809 7.16870152 -8 4 C-8 3.34 -8 2.68 -8 2 C-2.25 0 -2.25 0 0 0 Z " fill="#C40D01" transform="translate(72,105)"/>
<path d="M0 0 C1.99954746 -0.04254356 4.00041636 -0.04080783 6 0 C7 1 7 1 7.0625 4.0625 C7.041875 5.031875 7.02125 6.00125 7 7 C8.65 6.01 10.3 5.02 12 4 C12 4.99 12 5.98 12 7 C11.34 7 10.68 7 10 7 C10.20625 8.0725 10.4125 9.145 10.625 10.25 C10.9876191 13.87619096 10.98362069 15.08291076 9 18 C7.5216774 15.04335481 7.93967217 12.25770263 8 9 C7.34 8.67 6.68 8.34 6 8 C5.71125 7.175 5.4225 6.35 5.125 5.5 C4.27117929 2.81740446 4.27117929 2.81740446 1.875 2.1875 C1.25625 2.125625 0.6375 2.06375 0 2 C0 1.34 0 0.68 0 0 Z " fill="#A41F23" transform="translate(156,88)"/>
<path d="M0 0 C0.33 0 0.66 0 1 0 C0.49202991 4.3177458 -0.19682779 8.03302114 -2 12 C-2.99 11.34 -3.98 10.68 -5 10 C-5.99 10.33 -6.98 10.66 -8 11 C-8 9.02 -8 7.04 -8 5 C-7.01 5.33 -6.02 5.66 -5 6 C-4.195625 5.01 -3.39125 4.02 -2.5625 3 C-1.716875 2.01 -0.87125 1.02 0 0 Z " fill="#AA2126" transform="translate(172,102)"/>
<path d="M0 0 C0.99 0 1.98 0 3 0 C3 0.66 3 1.32 3 2 C4.98 2 6.96 2 9 2 C9 2.66 9 3.32 9 4 C12.08277387 4.67435678 15.11465584 5.12170994 18.25 5.4375 C20.10625 5.7159375 20.10625 5.7159375 22 6 C22.33 6.66 22.66 7.32 23 8 C14.52054322 8.639959 7.4665107 5.8728163 0 2 C0 1.34 0 0.68 0 0 Z " fill="#C12401" transform="translate(77,117)"/>
<path d="M0 0 C2.32891188 0.5374412 4.64081707 1.1507439 6.9375 1.8125 C10.15733472 2.88616123 10.15733472 2.88616123 13.25 2.75 C13.25 3.41 13.25 4.07 13.25 4.75 C14.9 4.75 16.55 4.75 18.25 4.75 C18.25 5.08 18.25 5.41 18.25 5.75 C11.31099412 6.08879414 6.48512894 5.80643575 0.25 2.75 C-1.73821313 2.35235737 -3.73732362 1.99544834 -5.75 1.75 C-2.75 -0.25 -2.75 -0.25 0 0 Z " fill="#BA2A28" transform="translate(75.75,130.25)"/>
<path d="M0 0 C2.97 0 5.94 0 9 0 C9.625 2.3125 9.625 2.3125 10 5 C9.01 6.485 9.01 6.485 8 8 C7.01 7.67 6.02 7.34 5 7 C5.33 5.68 5.66 4.36 6 3 C5.34 2.67 4.68 2.34 4 2 C3.67 3.65 3.34 5.3 3 7 C2.34 7 1.68 7 1 7 C1.33 5.02 1.66 3.04 2 1 C1.34 0.67 0.68 0.34 0 0 Z " fill="#EE863F" transform="translate(121,126)"/>
<path d="M0 0 C0.33 0 0.66 0 1 0 C1.33 2.31 1.66 4.62 2 7 C2.66 6.01 3.32 5.02 4 4 C4.99 4 5.98 4 7 4 C6.67 4.99 6.34 5.98 6 7 C5.34 6.67 4.68 6.34 4 6 C4 6.99 4 7.98 4 9 C2.68 9 1.36 9 0 9 C-0.66 8.34 -1.32 7.68 -2 7 C-2.66 7.66 -3.32 8.32 -4 9 C-4.99 8.67 -5.98 8.34 -7 8 C-6.34 7.67 -5.68 7.34 -5 7 C-5 6.01 -5 5.02 -5 4 C-4.01 3.67 -3.02 3.34 -2 3 C-1.34 2.01 -0.68 1.02 0 0 Z " fill="#F69749" transform="translate(114,124)"/>
<path d="M0 0 C0.33 0 0.66 0 1 0 C1.17835515 4.54805635 0.99785435 7.8794254 -1 12 C-0.34 12 0.32 12 1 12 C0.67 12.66 0.34 13.32 0 14 C-0.66 13.67 -1.32 13.34 -2 13 C-2.73075648 10.6859378 -3.40138258 8.35171131 -4 6 C-5.65 5.67 -7.3 5.34 -9 5 C-9 4.34 -9 3.68 -9 3 C-5.535 2.505 -5.535 2.505 -2 2 C-2 2.66 -2 3.32 -2 4 C-1.34 4 -0.68 4 0 4 C0 2.68 0 1.36 0 0 Z " fill="#F6DFD9" transform="translate(33,105)"/>
<path d="M0 0 C2.31 0.33 4.62 0.66 7 1 C6.835 1.61875 6.67 2.2375 6.5 2.875 C5.92365356 4.96063386 5.92365356 4.96063386 6 7 C7.32 7.66 8.64 8.32 10 9 C6.30458414 9.95024979 3.69541586 9.95024979 0 9 C0 8.01 0 7.02 0 6 C1.32 5.34 2.64 4.68 4 4 C3.01 3.67 2.02 3.34 1 3 C0.67 2.01 0.34 1.02 0 0 Z " fill="#CC1A07" transform="translate(99,123)"/>
<path d="M0 0 C1.5 1 1.5 1 3 3 C3.27345479 5.71846235 3.13491285 8.25677199 3 11 C1.68 10.34 0.36 9.68 -1 9 C-1 8.34 -1 7.68 -1 7 C-1.99 7.495 -1.99 7.495 -3 8 C-4.99960012 8.039992 -7.00047242 8.04346799 -9 8 C-9 7.34 -9 6.68 -9 6 C-4.545 5.505 -4.545 5.505 0 5 C0 3.35 0 1.7 0 0 Z " fill="#F1D2CD" transform="translate(32,100)"/>
<path d="M0 0 C0.66 0 1.32 0 2 0 C2 0.99 2 1.98 2 3 C2.99 2.67 3.98 2.34 5 2 C5.66 4.31 6.32 6.62 7 9 C6.01 9.495 6.01 9.495 5 10 C4.67 9.34 4.34 8.68 4 8 C3.01 9.485 3.01 9.485 2 11 C-0.97 10.505 -0.97 10.505 -4 10 C-3.360625 9.7525 -2.72125 9.505 -2.0625 9.25 C0.13144244 8.19229237 0.13144244 8.19229237 0.8125 6.125 C1.01502672 3.82969717 0.70156953 2.18266076 0 0 Z " fill="#B92301" transform="translate(108,104)"/>
<path d="M0 0 C3.5 0.25 3.5 0.25 5.5 2.25 C5.29107816 5.52310883 5.06305786 7.57433057 2.9375 10.125 C2.2259375 10.681875 2.2259375 10.681875 1.5 11.25 C1.17 10.59 0.84 9.93 0.5 9.25 C0.83 8.26 1.16 7.27 1.5 6.25 C2.16 6.25 2.82 6.25 3.5 6.25 C3.5 5.26 3.5 4.27 3.5 3.25 C0.53 2.92 -2.44 2.59 -5.5 2.25 C-3.5 0.25 -3.5 0.25 0 0 Z " fill="#BB2000" transform="translate(67.5,90.75)"/>
<path d="M0 0 C1.32 0.33 2.64 0.66 4 1 C3.401875 1.37125 2.80375 1.7425 2.1875 2.125 C-0.49654509 4.42561008 -1.5766714 6.79751065 -3 10 C-5.31 10 -7.62 10 -10 10 C-10 9.34 -10 8.68 -10 8 C-10.66 7.67 -11.32 7.34 -12 7 C-11.01 6.67 -10.02 6.34 -9 6 C-9 6.66 -9 7.32 -9 8 C-7.35 8 -5.7 8 -4 8 C-4 7.01 -4 6.02 -4 5 C-3.34 5 -2.68 5 -2 5 C-1.34 3.35 -0.68 1.7 0 0 Z " fill="#B0191E" transform="translate(119,137)"/>
<path d="M0 0 C0.66 0 1.32 0 2 0 C1.6875 1.9375 1.6875 1.9375 1 4 C0.01 4.33 -0.98 4.66 -2 5 C-2.33 6.65 -2.66 8.3 -3 10 C-5.475 9.01 -5.475 9.01 -8 8 C-8 7.01 -8 6.02 -8 5 C-7.01 5 -6.02 5 -5 5 C-5 4.34 -5 3.68 -5 3 C-3.35 3 -1.7 3 0 3 C0 2.01 0 1.02 0 0 Z " fill="#B51A1B" transform="translate(155,118)"/>
<path d="M0 0 C0.66 0.33 1.32 0.66 2 1 C1.67 3.31 1.34 5.62 1 8 C1.99 8.33 2.98 8.66 4 9 C3.67 10.65 3.34 12.3 3 14 C2.34 14 1.68 14 1 14 C0.71125 13.195625 0.4225 12.39125 0.125 11.5625 C-0.73262568 8.8673532 -0.73262568 8.8673532 -3 8 C-2.25 2.25 -2.25 2.25 0 0 Z " fill="#AB2F00" transform="translate(94,103)"/>
<path d="M0 0 C4.75 1.875 4.75 1.875 7 3 C7 3.99 7 4.98 7 6 C1.46153846 6.36923077 1.46153846 6.36923077 -0.875 4.5 C-1.24625 4.005 -1.6175 3.51 -2 3 C-1.34 2.01 -0.68 1.02 0 0 Z " fill="#F47D3E" transform="translate(53,103)"/>
<path d="M0 0 C1.32 0 2.64 0 4 0 C4 0.66 4 1.32 4 2 C3.2575 2.6496875 3.2575 2.6496875 2.5 3.3125 C0.72788682 4.96020352 0.72788682 4.96020352 0.8125 7.6875 C0.874375 8.450625 0.93625 9.21375 1 10 C-0.32 9.67 -1.64 9.34 -3 9 C-2.25 2.25 -2.25 2.25 0 0 Z " fill="#FDC135" transform="translate(76,102)"/>
<path d="M0 0 C0.33 0 0.66 0 1 0 C1.30497051 8.99663016 1.30497051 8.99663016 -1 13 C-1.99 13.33 -2.98 13.66 -4 14 C-3.34 12.02 -2.68 10.04 -2 8 C-2.66 8 -3.32 8 -4 8 C-4.33 7.01 -4.66 6.02 -5 5 C-2.525 5.495 -2.525 5.495 0 6 C-0.185625 5.38125 -0.37125 4.7625 -0.5625 4.125 C-1 2 -1 2 0 0 Z " fill="#B12004" transform="translate(122,107)"/>
<path d="M0 0 C1.32 0 2.64 0 4 0 C4 0.66 4 1.32 4 2 C3.2884375 2.6496875 3.2884375 2.6496875 2.5625 3.3125 C0.58616914 5.44693733 0.38336764 7.16307947 0 10 C-0.99 9.67 -1.98 9.34 -3 9 C-2.25 2.25 -2.25 2.25 0 0 Z " fill="#FDC432" transform="translate(97,102)"/>
<path d="M0 0 C0.99 0.33 1.98 0.66 3 1 C3 3.31 3 5.62 3 8 C1.35 7.67 -0.3 7.34 -2 7 C-1.125 1.125 -1.125 1.125 0 0 Z " fill="#D98621" transform="translate(78,104)"/>
<path d="M0 0 C-2.60077989 1.3496252 -5.17376986 2.46882627 -7.9375 3.4375 C-11.20791695 4.63563406 -14.07681554 6.0816602 -17 8 C-14.16620553 0.06537548 -7.32659771 -0.58612782 0 0 Z " fill="#FCB23D" transform="translate(74,88)"/>
<path d="M0 0 C0.78503906 0.07863281 1.57007812 0.15726563 2.37890625 0.23828125 C4.4375 0.6875 4.4375 0.6875 6.4375 2.6875 C4.64593648 2.85527183 2.8542455 3.02168294 1.0625 3.1875 C0.06476563 3.2803125 -0.93296875 3.373125 -1.9609375 3.46875 C-4.5625 3.6875 -4.5625 3.6875 -6.5625 3.6875 C-6.8925 2.6975 -7.2225 1.7075 -7.5625 0.6875 C-4.5419408 -0.31935307 -3.09173734 -0.34126261 0 0 Z " fill="#FBE3DE" transform="translate(71.5625,131.3125)"/>
<path d="M0 0 C1.9375 0.375 1.9375 0.375 4 1 C5.4783226 3.95664519 5.06032783 6.74229737 5 10 C4.34 10 3.68 10 3 10 C2.67 11.32 2.34 12.64 2 14 C0.3584951 10.7169902 1.48111376 7.57454967 2 4 C1.34 3.67 0.68 3.34 0 3 C0 2.01 0 1.02 0 0 Z " fill="#BE1A07" transform="translate(126,100)"/>
<path d="M0 0 C2.64 0.33 5.28 0.66 8 1 C7.34 2.32 6.68 3.64 6 5 C6.66 5.33 7.32 5.66 8 6 C6.68 6 5.36 6 4 6 C3.67 5.34 3.34 4.68 3 4 C1.02 4.99 1.02 4.99 -1 6 C-1 5.34 -1 4.68 -1 4 C-0.34 4 0.32 4 1 4 C0.67 2.68 0.34 1.36 0 0 Z " fill="#DC9C9B" transform="translate(164,89)"/>
<path d="M0 0 C1.32 0.33 2.64 0.66 4 1 C-2.02215104 5.01476736 -7.99943109 5.28573751 -15 5 C-9.97583178 1.65055452 -5.90048743 1.90165854 0 2 C0 1.34 0 0.68 0 0 Z " fill="#F6D1CC" transform="translate(144,79)"/>
<path d="M0 0 C0.625 1.875 0.625 1.875 1 4 C0.34 4.66 -0.32 5.32 -1 6 C-1 4.68 -1 3.36 -1 2 C-2.32 2 -3.64 2 -5 2 C-5 3.32 -5 4.64 -5 6 C-6.32 5.67 -7.64 5.34 -9 5 C-9 4.01 -9 3.02 -9 2 C-5.62902617 0.50178941 -3.79557881 0 0 0 Z " fill="#C94A48" transform="translate(99,81)"/>
<path d="M0 0 C1.98 0.66 3.96 1.32 6 2 C6.6875 4.8125 6.6875 4.8125 7 8 C5.6875 9.875 5.6875 9.875 4 11 C3.34 11 2.68 11 2 11 C3.875 5.25 3.875 5.25 5 3 C2.69 3.33 0.38 3.66 -2 4 C-1.34 2.68 -0.68 1.36 0 0 Z " fill="#F3D7D4" transform="translate(165,73)"/>
<path d="M0 0 C0.66 0.33 1.32 0.66 2 1 C1.01 2.485 1.01 2.485 0 4 C-0.66 4 -1.32 4 -2 4 C-1.67 5.65 -1.34 7.3 -1 9 C-1.66 9 -2.32 9 -3 9 C-3.33 9.66 -3.66 10.32 -4 11 C-6.97 10.505 -6.97 10.505 -10 10 C-9.67 9.34 -9.34 8.68 -9 8 C-7.68 8 -6.36 8 -5 8 C-4.319375 6.576875 -4.319375 6.576875 -3.625 5.125 C-2 2 -2 2 0 0 Z " fill="#F5CFCC" transform="translate(121,138)"/>
<path d="M0 0 C1.65 0 3.3 0 5 0 C3.68 0.33 2.36 0.66 1 1 C0.896875 1.70125 0.79375 2.4025 0.6875 3.125 C-0.09359003 6.39137647 -1.42058743 9.0471852 -3 12 C-3.33 12 -3.66 12 -4 12 C-4 9.69 -4 7.38 -4 5 C-3.01 5 -2.02 5 -1 5 C-0.67 3.35 -0.34 1.7 0 0 Z " fill="#BA2A2E" transform="translate(138,122)"/>
<path d="M0 0 C0.4125 0.474375 0.825 0.94875 1.25 1.4375 C3.182185 3.16266518 4.48192275 3.56584875 7 4 C7.12375 4.639375 7.2475 5.27875 7.375 5.9375 C7.58125 6.618125 7.7875 7.29875 8 8 C8.66 8.33 9.32 8.66 10 9 C8.68 9 7.36 9 6 9 C6 8.01 6 7.02 6 6 C4.824375 5.7834375 4.824375 5.7834375 3.625 5.5625 C1 5 1 5 -1 4 C-0.67 2.68 -0.34 1.36 0 0 Z " fill="#B41519" transform="translate(50,120)"/>
<path d="M0 0 C1.32 0 2.64 0 4 0 C3.745504 1.48206495 3.47088238 2.96068615 3.1875 4.4375 C3.03667969 5.26121094 2.88585937 6.08492188 2.73046875 6.93359375 C2.48941406 7.61550781 2.24835938 8.29742187 2 9 C1.01 9.33 0.02 9.66 -1 10 C-1.125 3.375 -1.125 3.375 0 0 Z " fill="#FBBB39" transform="translate(90,102)"/>
<path d="M0 0 C3 3.625 3 3.625 3 7 C4.6396875 6.690625 4.6396875 6.690625 6.3125 6.375 C10 6 10 6 13 8 C9.37 8 5.74 8 2 8 C2 7.34 2 6.68 2 6 C1.01 6 0.02 6 -1 6 C-0.67 4.02 -0.34 2.04 0 0 Z " fill="#B4292C" transform="translate(100,86)"/>
<path d="M0 0 C0.99 0.33 1.98 0.66 3 1 C3 1.66 3 2.32 3 3 C3.66 3.33 4.32 3.66 5 4 C3.68 4.33 2.36 4.66 1 5 C1.33 6.65 1.66 8.3 2 10 C1.34 10 0.68 10 0 10 C0 8.35 0 6.7 0 5 C-0.66 5 -1.32 5 -2 5 C-1.34 3.35 -0.68 1.7 0 0 Z " fill="#CD1912" transform="translate(115,112)"/>
<path d="M0 0 C3.59634744 3.49359465 6.83451967 7.11098131 10 11 C9.01 11.495 9.01 11.495 8 12 C7.67 11.67 7.34 11.34 7 11 C6.01 11.495 6.01 11.495 5 12 C4.67 10.02 4.34 8.04 4 6 C3.34 6 2.68 6 2 6 C1.34 4.02 0.68 2.04 0 0 Z " fill="#F5D8D4" transform="translate(100,136)"/>
<path d="M0 0 C0.66 0.33 1.32 0.66 2 1 C2 1.66 2 2.32 2 3 C3.98 2.67 5.96 2.34 8 2 C6.5 4.125 6.5 4.125 4 6 C1.10929988 5.74623625 -1.21627986 4.92790671 -4 4 C-2.68 2.68 -1.36 1.36 0 0 Z " fill="#BF1A03" transform="translate(112,130)"/>
<path d="M0 0 C0.33 0 0.66 0 1 0 C1.33 1.98 1.66 3.96 2 6 C3.65 6.33 5.3 6.66 7 7 C5 9 5 9 3.0546875 9.1953125 C1.03645833 9.13020833 -0.98177083 9.06510417 -3 9 C-3 8.34 -3 7.68 -3 7 C-2.01 7 -1.02 7 0 7 C0 4.69 0 2.38 0 0 Z " fill="#BD0E00" transform="translate(82,106)"/>
<path d="M0 0 C0.99 0 1.98 0 3 0 C2.125 7.75 2.125 7.75 1 10 C0.34 10 -0.32 10 -1 10 C-0.67 6.7 -0.34 3.4 0 0 Z " fill="#FBBD36" transform="translate(84,102)"/>
<path d="M0 0 C0.66 0.66 1.32 1.32 2 2 C1.67 2.639375 1.34 3.27875 1 3.9375 C-0.07271225 5.76794567 -0.07271225 5.76794567 0 7 C-1.98 7 -3.96 7 -6 7 C-4.19587357 3.73539027 -3.16605307 2.11070205 0 0 Z " fill="#F8E6DF" transform="translate(183,85)"/>
<path d="M0 0 C-0.66 0 -1.32 0 -2 0 C-2 0.66 -2 1.32 -2 2 C-3.45463481 2.38909985 -4.91391207 2.76088029 -6.375 3.125 C-7.18710938 3.33382812 -7.99921875 3.54265625 -8.8359375 3.7578125 C-9.55007812 3.83773437 -10.26421875 3.91765625 -11 4 C-11.66 3.34 -12.32 2.68 -13 2 C-11.5882217 1.46605821 -10.17029756 0.94834896 -8.75 0.4375 C-7.96109375 0.14746094 -7.1721875 -0.14257812 -6.359375 -0.44140625 C-3.80896548 -1.04522837 -2.44677771 -0.8473932 0 0 Z " fill="#B91216" transform="translate(144,83)"/>
<path d="M0 0 C0.99 0 1.98 0 3 0 C3 1.65 3 3.3 3 5 C4.32 4.67 5.64 4.34 7 4 C7.33 4.66 7.66 5.32 8 6 C4.30458414 6.95024979 1.69541586 6.95024979 -2 6 C-1.34 4.02 -0.68 2.04 0 0 Z " fill="#C83808" transform="translate(86,107)"/>
<path d="M0 0 C1.98 0 3.96 0 6 0 C6 1.65 6 3.3 6 5 C4.68 5 3.36 5 2 5 C2 4.34 2 3.68 2 3 C1.34 3 0.68 3 0 3 C0 2.01 0 1.02 0 0 Z " fill="#D4524E" transform="translate(156,98)"/>
<path d="M0 0 C3.63 0 7.26 0 11 0 C10.01 1.485 10.01 1.485 9 3 C6.03 2.67 3.06 2.34 0 2 C0 1.34 0 0.68 0 0 Z " fill="#AA383A" transform="translate(53,79)"/>
<path d="M0 0 C0.66 0 1.32 0 2 0 C3 5.75 3 5.75 3 8 C1.35 7.67 -0.3 7.34 -2 7 C-1.34 4.69 -0.68 2.38 0 0 Z " fill="#F6A336" transform="translate(119,105)"/>
<path d="M0 0 C-0.66 1.32 -1.32 2.64 -2 4 C-2 3.01 -2 2.02 -2 1 C-4.51083114 2.25541557 -4.87125446 3.50063488 -6 6 C-6.99 5.01 -7.98 4.02 -9 3 C-6.07868595 -0.19953443 -4.37453972 -1.45817991 0 0 Z " fill="#B11E23" transform="translate(170,76)"/>
<path d="M0 0 C0.93423645 3.01031744 1.04449911 3.86650268 0 7 C-1.65 6.67 -3.3 6.34 -5 6 C-4.01 4.68 -3.02 3.36 -2 2 C-2.66 1.67 -3.32 1.34 -4 1 C-2 0 -2 0 0 0 Z " fill="#B7161C" transform="translate(164,106)"/>
<path d="M0 0 C1.99954746 -0.04254356 4.00041636 -0.04080783 6 0 C7 1 7 1 7.0625 4.0625 C7.041875 5.031875 7.02125 6.00125 7 7 C6.5875 6.360625 6.175 5.72125 5.75 5.0625 C3.82189513 2.79009069 2.88575819 2.39803561 0 2 C0 1.34 0 0.68 0 0 Z " fill="#DB4F4E" transform="translate(156,88)"/>
<path d="M0 0 C-0.33 1.65 -0.66 3.3 -1 5 C0.32 5 1.64 5 3 5 C3 5.66 3 6.32 3 7 C0.625 7.125 0.625 7.125 -2 7 C-2.66 6.34 -3.32 5.68 -4 5 C-4 3.68 -4 2.36 -4 1 C-2 0 -2 0 0 0 Z " fill="#F69A65" transform="translate(120,116)"/>
<path d="M0 0 C3.3 0.33 6.6 0.66 10 1 C6.81237635 3.12508244 4.73487777 3.5020163 1 4 C0.67 2.68 0.34 1.36 0 0 Z " fill="#B84C4F" transform="translate(34,117)"/>
<path d="M0 0 C1.32 0 2.64 0 4 0 C4 0.66 4 1.32 4 2 C3.34 2 2.68 2 2 2 C2 2.66 2 3.32 2 4 C2.99 4.33 3.98 4.66 5 5 C2.50907189 6.24546405 1.58919267 5.7767578 -1 5 C-0.67 3.35 -0.34 1.7 0 0 Z " fill="#B81C1E" transform="translate(33,112)"/>
<path d="M0 0 C0.99 0 1.98 0 3 0 C3.125 5.75 3.125 5.75 2 8 C1.34 8 0.68 8 0 8 C0 5.36 0 2.72 0 0 Z " fill="#FCD131" transform="translate(125,106)"/>
<path d="M0 0 C2.475 0.99 2.475 0.99 5 2 C5 2.66 5 3.32 5 4 C6.32 3.34 7.64 2.68 9 2 C9.33 2.66 9.66 3.32 10 4 C6.75 4.75 6.75 4.75 3 5 C0.5625 3.0625 0.5625 3.0625 -1 1 C-0.67 0.67 -0.34 0.34 0 0 Z " fill="#B01A1B" transform="translate(146,80)"/>
<path d="M0 0 C2.97 0 5.94 0 9 0 C9.33 0.66 9.66 1.32 10 2 C5.545 2.495 5.545 2.495 1 3 C0.67 2.01 0.34 1.02 0 0 Z " fill="#B72225" transform="translate(60,129)"/>
<path d="M0 0 C0.33 0.66 0.66 1.32 1 2 C-2.29549466 3.72264494 -5.33118845 5.29445932 -9 6 C-8.67 4.68 -8.34 3.36 -8 2 C-5.36 1.34 -2.72 0.68 0 0 Z " fill="#B83A3E" transform="translate(87,80)"/>
<path d="M0 0 C0.66 0 1.32 0 2 0 C1.67 1.32 1.34 2.64 1 4 C-0.65 4.33 -2.3 4.66 -4 5 C-4.33 3.68 -4.66 2.36 -5 1 C-4.34 1 -3.68 1 -3 1 C-3 1.66 -3 2.32 -3 3 C-2.01 3 -1.02 3 0 3 C0 2.01 0 1.02 0 0 Z " fill="#FBB341" transform="translate(108,108)"/>
<path d="M0 0 C0.66 0 1.32 0 2 0 C2.33 0.66 2.66 1.32 3 2 C3.99 2.33 4.98 2.66 6 3 C5.67 4.32 5.34 5.64 5 7 C4.34 6.34 3.68 5.68 3 5 C2.01 5.33 1.02 5.66 0 6 C0 4.02 0 2.04 0 0 Z " fill="#AD3F3D" transform="translate(164,107)"/>
<path d="M0 0 C-0.33 0.99 -0.66 1.98 -1 3 C-3.64 3 -6.28 3 -9 3 C-9 2.34 -9 1.68 -9 1 C-5.846632 0.29925156 -3.27275026 0 0 0 Z " fill="#993332" transform="translate(32,105)"/>
<path d="M0 0 C-5.75 4 -5.75 4 -8 4 C-5.97675095 -0.48005146 -4.79569304 -1.43870791 0 0 Z " fill="#C80E04" transform="translate(65,94)"/>
<path d="M0 0 C-3.22791555 2.1519437 -4.28400809 2.20086443 -8 2 C-7.67 2.99 -7.34 3.98 -7 5 C-7.66 5 -8.32 5 -9 5 C-9 3.35 -9 1.7 -9 0 C-5.67465243 -1.10844919 -3.37817425 -0.84454356 0 0 Z " fill="#F4DDD9" transform="translate(87,80)"/>
<path d="M0 0 C0.66 0 1.32 0 2 0 C2 0.99 2 1.98 2 3 C3.32 3 4.64 3 6 3 C6 3.66 6 4.32 6 5 C4.34385343 5.38218767 2.67542976 5.71395102 1 6 C0 5 0 5 -0.0625 2.4375 C-0.041875 1.633125 -0.02125 0.82875 0 0 Z " fill="#EFCCC9" transform="translate(54,126)"/>
<path d="M0 0 C0.66 0.33 1.32 0.66 2 1 C1.67 2.32 1.34 3.64 1 5 C-0.65 4.67 -2.3 4.34 -4 4 C-2.68 2.68 -1.36 1.36 0 0 Z " fill="#FCE1DC" transform="translate(167,111)"/>
<path d="M0 0 C1.4606285 2.64738916 2 3.89448334 2 7 C1.34 7 0.68 7 0 7 C0 6.34 0 5.68 0 5 C-0.66 5 -1.32 5 -2 5 C-2.33 5.99 -2.66 6.98 -3 8 C-3.33 7.01 -3.66 6.02 -4 5 C-3.34 4.34 -2.68 3.68 -2 3 C-1.34 3.33 -0.68 3.66 0 4 C0 2.68 0 1.36 0 0 Z " fill="#C2640A" transform="translate(105,104)"/>
<path d="M0 0 C-1.75 1.5625 -1.75 1.5625 -4 3 C-6.1875 2.8125 -6.1875 2.8125 -8 2 C-8.33 1.34 -8.66 0.68 -9 0 C-2.25 -1.125 -2.25 -1.125 0 0 Z " fill="#B91800" transform="translate(68,103)"/>
<path d="M0 0 C2.48046875 0.14453125 2.48046875 0.14453125 5.1875 0.8125 C6.53908203 1.13154297 6.53908203 1.13154297 7.91796875 1.45703125 C8.60503906 1.63621094 9.29210937 1.81539063 10 2 C10 2.33 10 2.66 10 3 C5.71 3 1.42 3 -3 3 C-2.01 2.01 -1.02 1.02 0 0 Z " fill="#FACECC" transform="translate(106,90)"/>
<path d="M0 0 C2.97 0 5.94 0 9 0 C9 0.99 9 1.98 9 3 C7.02 3.33 5.04 3.66 3 4 C3 3.34 3 2.68 3 2 C2.01 1.67 1.02 1.34 0 1 C0 0.67 0 0.34 0 0 Z " fill="#F0C6C0" transform="translate(148,80)"/>
<path d="M0 0 C0.66 0 1.32 0 2 0 C1.74438677 2.3431213 1.40729228 4.67843403 1 7 C0.01 7.495 0.01 7.495 -1 8 C-1.04241723 5.66705225 -1.04092937 3.33297433 -1 1 C-0.67 0.67 -0.34 0.34 0 0 Z " fill="#BF1216" transform="translate(166,77)"/>
<path d="M0 0 C0.928125 0.20625 1.85625 0.4125 2.8125 0.625 C3.1425 1.615 3.4725 2.605 3.8125 3.625 C0.5125 2.965 -2.7875 2.305 -6.1875 1.625 C-3.1875 -0.375 -3.1875 -0.375 0 0 Z " fill="#B71D25" transform="translate(76.1875,130.375)"/>
<path d="M0 0 C4.875 1.75 4.875 1.75 6 4 C3.69 3.67 1.38 3.34 -1 3 C-0.67 2.01 -0.34 1.02 0 0 Z " fill="#AF2201" transform="translate(53,103)"/>
<path d="M0 0 C2.0625 0.4375 2.0625 0.4375 4 1 C3.01 1.33 2.02 1.66 1 2 C0.67 4.31 0.34 6.62 0 9 C-0.33 9 -0.66 9 -1 9 C-1.09765625 2.84765625 -1.09765625 2.84765625 -1 1 C-0.67 0.67 -0.34 0.34 0 0 Z " fill="#A05156" transform="translate(160,113)"/>
<path d="M0 0 C0.99 0.33 1.98 0.66 3 1 C3 2.65 3 4.3 3 6 C2.67 5.01 2.34 4.02 2 3 C1.01 3 0.02 3 -1 3 C-1.33 3.99 -1.66 4.98 -2 6 C-1.125 1.125 -1.125 1.125 0 0 Z " fill="#ED8C47" transform="translate(126,103)"/>
<path d="M0 0 C0.66 0.33 1.32 0.66 2 1 C1.1875 3.9375 1.1875 3.9375 0 7 C-0.99 7.33 -1.98 7.66 -3 8 C-2.25 2.25 -2.25 2.25 0 0 Z " fill="#B54801" transform="translate(94,103)"/>
<path d="M0 0 C0.99 0.33 1.98 0.66 3 1 C2.34 1 1.68 1 1 1 C0.67 2.98 0.34 4.96 0 7 C-0.66 7 -1.32 7 -2 7 C-1.125 1.125 -1.125 1.125 0 0 Z " fill="#B24203" transform="translate(99,104)"/>
<path d="M0 0 C0.99 1.32 1.98 2.64 3 4 C1.02 4.33 -0.96 4.66 -3 5 C-1.125 1.125 -1.125 1.125 0 0 Z " fill="#AA3036" transform="translate(173,89)"/>
<path d="M0 0 C1.98 0.99 3.96 1.98 6 3 C5.01 4.485 5.01 4.485 4 6 C3.34 6 2.68 6 2 6 C1.34 4.02 0.68 2.04 0 0 Z " fill="#FCF0EB" transform="translate(101,86)"/>
<path d="M0 0 C0 0.66 0 1.32 0 2 C-3.63 1.67 -7.26 1.34 -11 1 C-11 0.67 -11 0.34 -11 0 C-3.375 -1.125 -3.375 -1.125 0 0 Z " fill="#F9D4D1" transform="translate(76,83)"/>
</svg>
